<svg id="Group_16" data-name="Group 16" xmlns="http://www.w3.org/2000/svg" width="15.721" height="18" viewBox="0 0 15.721 18">
  <path id="Path_14" data-name="Path 14" d="M1122,5434.87q-3.092,0-6.185,0a1.636,1.636,0,0,1-1.628-1.276,1.681,1.681,0,0,1-.034-.387q0-3.411,0-6.822a1.648,1.648,0,0,1,1.6-1.631,5.565,5.565,0,0,1,.657,0c.218.019.263-.07.26-.27-.01-.774,0-1.548,0-2.322a5.279,5.279,0,0,1,3.342-4.888,5.194,5.194,0,0,1,5.741,1.141,5.135,5.135,0,0,1,1.6,3.733c.021.766,0,1.534.006,2.3,0,.3,0,.3.306.3.178,0,.356,0,.534,0a1.654,1.654,0,0,1,1.669,1.67q.008,3.411,0,6.821a1.635,1.635,0,0,1-1.643,1.625Q1125.109,5434.874,1122,5434.87Zm.006-10.118c.753,0,1.506,0,2.259,0,.19,0,.266-.048.263-.252-.01-.746,0-1.492-.006-2.238a2.513,2.513,0,0,0-5.02-.23c-.018.835,0,1.67-.01,2.505,0,.178.074.217.234.215C1120.483,5424.749,1121.243,5424.752,1122,5424.752Z" transform="translate(-1114.148 -5416.871)" fill="#a29e9e"/>
</svg>
