<svg xmlns="http://www.w3.org/2000/svg" width="20.21" height="20.24" viewBox="0 0 20.21 20.24">
  <path id="Path_17" data-name="Path 17" d="M403.122,2440.24c0-2.638.028-5.277-.013-7.915a2.206,2.206,0,0,1,2.164-2.183q7.942.023,15.884,0a2.247,2.247,0,0,1,2.162,2.194c-.027,5.294-.01,10.589-.013,15.884a2.114,2.114,0,0,1-2.135,2.154c-1.979.016-3.958,0-5.937.008-.222,0-.286-.084-.285-.3q.008-3.14,0-6.28c0-.227.068-.312.3-.308.677.01,1.354,0,2.032,0,.2,0,.291-.059.321-.276.119-.853.259-1.7.393-2.553.066-.417.068-.417-.344-.417-.8,0-1.6-.006-2.4,0-.229,0-.31-.074-.306-.3.012-.633,0-1.267.009-1.9a1.527,1.527,0,0,1,1.526-1.618c.464-.034.931-.039,1.4-.041.206,0,.3-.055.3-.282-.01-.73,0-1.46,0-2.19,0-.126,0-.245-.173-.27a9.727,9.727,0,0,0-3.486-.061,3.5,3.5,0,0,0-2.866,2.826,11.922,11.922,0,0,0-.164,1.962c-.025.5-.006,1-.008,1.5,0,.372,0,.372-.388.373-.712,0-1.425.006-2.137,0-.229,0-.33.051-.326.307.014.862,0,1.724,0,2.586,0,.354,0,.356.348.357.721,0,1.443.007,2.164-.006.243,0,.343.06.342.323q-.013,3.127,0,6.253c0,.226-.067.309-.3.308-1.979-.007-3.958,0-5.937-.006a2.189,2.189,0,0,1-2.134-2.138C403.143,2445.57,403.122,2442.9,403.122,2440.24Z" transform="translate(-403.109 -2430.14)" fill="#4267b2"/>
</svg>
