<svg xmlns="http://www.w3.org/2000/svg" width="15.889" height="18.213" viewBox="0 0 15.889 18.213">
  <g id="Group_17" data-name="Group 17" transform="matrix(1, 0.017, -0.017, 1, 0.314, -0.059)">
    <path id="Path_15" data-name="Path 15" d="M1133.663,4444.177q-3.1,0-6.195,0a1.647,1.647,0,0,1-1.628-1.284.084.084,0,0,1-.005-.021,9.183,9.183,0,0,1,.292-3.618,4.773,4.773,0,0,1,4.272-2.95,3.485,3.485,0,0,1,1.281.208,5.982,5.982,0,0,0,4.361-.124,1.26,1.26,0,0,1,.417-.081,5.232,5.232,0,0,1,1.964.266,4.73,4.73,0,0,1,3.122,4.291c.01.569.008,1.138,0,1.708a1.643,1.643,0,0,1-1.607,1.6c-1.05.006-2.1,0-3.149,0Z" transform="translate(-1125.799 -4426.178)" fill="#a29e9e"/>
    <path id="Path_16" data-name="Path 16" d="M1212.144,4190.357a4.484,4.484,0,0,1,4.492,4.523,4.508,4.508,0,1,1-9.013-.178A4.461,4.461,0,0,1,1212.144,4190.357Z" transform="translate(-1204.254 -4190.356)" fill="#a29e9e"/>
  </g>
</svg>
